:SAMPLES-PER-SECOND 30
:FRAME-RANGE 1-3358
:FULLY-SPECIFIED
:DEGREES
525
root  -14.2207 39.0335 48.8474 174.8 73.8376 174.47
RightUpLeg  -2.37713 -3.77031 -5.14269
RightLeg  19.3294 3.64534 0.918643
RightFoot  -15.9875 0.0736863 4.48613
RightToes  -1.11029e-010 1.2921e-014 -6.02303e-014
Spine  -3.49776 0.655705 8.86355
Spine1  6.96451 1.29523 -3.64381
HEad  11.0095 56.7973 -8.23816
LeftShoulder1  0.189078 2.61065 -21.091
LeftArm  -15.3143 4.10724 -37.321
LeftForeArm  -11.9734 -45.0544 -11.9883
LeftHand  -0.00551387 2.09514 -0.212038
RightShoulder  1.76159 2.69672 23.1871
RightArm  -24.6079 9.31501 40.071
RightForeArm  59.9068 -5.69383 3.64388
RightHand  0.143383 -6.39282 -18.156
LeftUpLeg  -22.8274 0.838559 -1.63343
LeftLeg  31.5046 11.1774 7.64284
LeftFoot  -5.28435 0.226346 -3.67837
LeftToes  -1.90334e-010 -8.83595e-011 4.99953e-011
526
root  -13.2982 39.1015 48.7888 174.236 72.7809 173.166
RightUpLeg  -0.530739 -4.80152 -5.42314
RightLeg  17.538 3.56827 0.744066
RightFoot  -16.4631 0.0846411 4.38576
RightToes  -1.11029e-010 1.2921e-014 -6.02303e-014
Spine  -3.95795 0.993569 8.65352
Spine1  7.02156 1.73002 -4.49796
HEad  10.8651 56.8108 -8.55698
LeftShoulder1  0.168143 2.69178 -21.2988
LeftArm  -17.0827 4.86809 -37.3358
LeftForeArm  -14.232 -45.9715 -12.5086
LeftHand  0.0604763 2.02724 -2.523
RightShoulder  1.79859 2.9338 22.6388
RightArm  -24.5459 10.9941 40.3055
RightForeArm  59.5082 -5.70477 3.62935
RightHand  0.114086 -6.21575 -17.9377
LeftUpLeg  -22.3171 2.97062 -3.77566
LeftLeg  20.5709 14.627 6.30051
LeftFoot  -3.51934 0.294386 -3.99664
LeftToes  -1.90334e-010 -8.83595e-011 4.99953e-011
527
root  -12.3805 39.0997 48.6923 174.892 71.5199 173.189
RightUpLeg  1.22139 -5.48359 -5.29791
RightLeg  16.1329 2.85768 0.511357
RightFoot  -17.0278 0.0888497 4.11117
RightToes  -1.11029e-010 1.2921e-014 -6.02303e-014
Spine  -4.21734 1.14904 8.53492
Spine1  6.99778 1.96512 -5.09729
HEad  10.4341 56.8766 -9.03533
LeftShoulder1  0.120233 2.87011 -21.5655
LeftArm  -18.6221 5.74414 -37.3218
LeftForeArm  -17.2774 -47.2961 -13.2746
LeftHand  0.0635437 2.40683 -3.06188
RightShoulder  1.81076 3.07703 22.1562
RightArm  -24.5717 12.6268 40.6862
RightForeArm  59.0669 -5.7091 3.56719
RightHand  0.126216 -6.31002 -17.6878
LeftUpLeg  -21.9225 1.62955 -4.50175
LeftLeg  11.4485 19.4315 3.91215
LeftFoot  -2.36827 0.410793 -5.05314
LeftToes  -1.90334e-010 -8.83595e-011 4.99953e-011
528
root  -11.4616 39.0019 48.5519 176.192 69.8851 174.044
RightUpLeg  2.92962 -5.65773 -4.74751
RightLeg  15.3123 1.27429 0.0780964
RightFoot  -17.9658 0.129359 4.3375
RightToes  -1.11029e-010 1.2921e-014 -6.02303e-014
Spine  -4.35014 1.20748 8.33949
Spine1  7.04524 2.0303 -5.22534
HEad  9.25414 56.6635 -9.99686
LeftShoulder1  0.0849098 2.99946 -21.755
LeftArm  -19.9744 6.32807 -37.6526
LeftForeArm  -19.3182 -48.4678 -13.9439
LeftHand  0.0471759 2.3615 -2.36107
RightShoulder  1.80283 3.12995 21.7767
RightArm  -24.6844 13.887 40.9477
RightForeArm  58.6763 -5.70386 3.45844
RightHand  0.11729 -6.25949 -17.5393
LeftUpLeg  -22.0489 -1.74669 -4.63113
LeftLeg  5.32665 24.4003 2.53991
LeftFoot  -2.55359 0.374518 -4.67392
LeftToes  -1.90334e-010 -8.83595e-011 4.99953e-011
529
root  -10.5071 38.8314 48.3888 176.774 68.1803 174.392
RightUpLeg  4.55402 -5.87262 -4.34614
RightLeg  15.3677 -0.162974 -0.273243
RightFoot  -19.3403 0.191442 4.61117
RightToes  -1.11029e-010 1.2921e-014 -6.02303e-014
Spine  -4.50738 1.37537 7.80711
Spine1  7.42325 2.23278 -5.23785
HEad  8.17201 56.0062 -10.5651
LeftShoulder1  0.106349 2.92225 -21.7246
LeftArm  -21.0705 6.65037 -38.018
LeftForeArm  -16.1844 -49.5403 -14.2877
LeftHand  0.015475 2.83086 -1.44836
RightShoulder  1.83575 3.22555 21.8799
RightArm  -24.9209 14.6055 40.8568
RightForeArm  58.629 -5.68047 3.3091
RightHand  0.0997739 -6.14807 -17.4295
LeftUpLeg  -22.3216 -3.16101 -5.54787
LeftLeg  1.91197 26.8063 1.87379
LeftFoot  -2.43103 0.314114 -3.84404
LeftToes  -1.90334e-010 -8.83595e-011 4.99953e-011
530
root  -9.45661 38.6212 48.1817 177.435 67.1072 175.131
RightUpLeg  5.97156 -5.40395 -3.58601
RightLeg  16.5806 -1.54816 -0.751868
RightFoot  -20.6516 0.277164 5.12091
RightToes  -1.11029e-010 1.2921e-014 -6.02303e-014
Spine  -4.60104 1.80282 7.76147
Spine1  7.71556 2.77593 -5.58694
HEad  7.5468 55.4437 -10.261
LeftShoulder1  0.137037 2.80923 -21.549
LeftArm  -21.5943 6.752 -37.8568
LeftForeArm  -10.8388 -50.2603 -14.3115
LeftHand  -0.00665594 3.37446 -0.706852
RightShoulder  1.92473 3.46953 22.2084
RightArm  -25.0803 14.7208 41.0744
RightForeArm  59.1659 -5.64541 3.20556
RightHand  0.11633 -6.25248 -17.7075
LeftUpLeg  -22.4893 -3.44077 -5.91634
LeftLeg  1.91061 26.6291 1.77664
LeftFoot  -3.05488 0.261074 -3.35072
LeftToes  -1.90334e-010 -8.83595e-011 4.99953e-011
531
root  -8.3539 38.4168 47.9392 178.433 66.1996 176.395
RightUpLeg  7.21505 -5.15067 -2.69551
RightLeg  18.549 -2.23111 -1.04734
RightFoot  -21.5479 0.409727 6.2201
RightToes  -1.11029e-010 1.2921e-014 -6.02303e-014
Spine  -4.737 2.14262 7.6327
Spine1  8.11497 3.22838 -5.89235
HEad  7.5196 55.0886 -9.2569
LeftShoulder1  0.0794069 3.0158 -21.408
LeftArm  -21.3911 6.77691 -37.5891
LeftForeArm  -13.4593 -51.0306 -14.8924
LeftHand  0.00937573 2.73638 -1.09573
RightShoulder  2.00993 3.70376 22.4982
RightArm  -25.3846 14.8487 41.838
RightForeArm  60.6575 -5.55582 2.97007
RightHand  0.117497 -6.25402 -17.6568
LeftUpLeg  -22.9706 -3.15434 -6.04368
LeftLeg  5.18504 24.56 2.74861
LeftFoot  -2.25634 0.00855336 0.0636719
LeftToes  -1.90334e-010 -8.83595e-011 4.99953e-011
532
root  -7.28063 38.2654 47.6892 178.254 65.5541 176.423
RightUpLeg  7.39854 -4.0529 -2.20151
RightLeg  22.4804 -2.60459 -1.40008
RightFoot  -21.843 0.601926 8.15226
RightToes  -1.11029e-010 1.2921e-014 -6.02303e-014
Spine  -4.45628 2.4208 6.4176
Spine1  8.10717 3.56414 -6.06215
HEad  7.54629 55.0787 -8.29101
LeftShoulder1  -0.0369313 3.4367 -21.5797
LeftArm  -21.4657 7.62138 -37.0824
LeftForeArm  -13.1393 -52.637 -15.7743
LeftHand  0.00689223 2.62632 -0.916733
RightShoulder  2.10392 3.90686 23.0306
RightArm  -25.9927 15.0932 42.8517
RightForeArm  63.6904 -5.3719 2.50484
RightHand  0.115669 -6.23727 -17.738
LeftUpLeg  -23.5521 -3.29926 -6.16569
LeftLeg  8.75226 23.5167 4.59849
LeftFoot  3.75786 -0.234592 1.59816
LeftToes  -1.90334e-010 -8.83595e-011 4.99953e-011
